<?xml version="1.0" encoding="UTF-8"?>
<svg width="24px" height="11px" viewBox="0 0 24 11" version="1.1" xmlns="http://www.w3.org/2000/svg" xmlns:xlink="http://www.w3.org/1999/xlink">
    <!-- Generator: Sketch 57.1 (83088) - https://sketch.com -->
    <title>left-heart</title>
    <desc>Created with Sketch.</desc>
    <g id="Page-1" stroke="none" stroke-width="1" fill="none" fill-rule="evenodd">
        <g id="Group-6" transform="translate(-23.000000, -32.000000)">
            <g id="Group-3" transform="translate(22.000000, 21.000000)">
                <g id="left-heart" transform="translate(0.680185, 6.000000)">
                    <path d="M14.1213203,3 C15.7781746,3 17.1213203,4.34314575 17.1213203,6 L17.1213203,13 L17,12.999 L17,13.1213203 L10,13.1213203 C8.34314575,13.1213203 7,11.7781746 7,10.1213203 C7,8.46446609 8.34314575,7.12132034 10,7.12132034 L11.121,7.121 L11.1213203,6 C11.1213203,4.34314575 12.4644661,3 14.1213203,3 Z" id="Combined-Shape" fill="#FF7272" transform="translate(12.060660, 8.060660) rotate(-315.000000) translate(-12.060660, -8.060660) "></path>
                    <path d="M4.35355339,7.35355339 C4.54881554,7.15829124 4.54881554,6.84170876 4.35355339,6.64644661 C4.15829124,6.45118446 3.84170876,6.45118446 3.64644661,6.64644661 L0.646446609,9.64644661 C0.451184464,9.84170876 0.451184464,10.1582912 0.646446609,10.3535534 L3.64644661,13.3535534 C3.84170876,13.5488155 4.15829124,13.5488155 4.35355339,13.3535534 C4.54881554,13.1582912 4.54881554,12.8417088 4.35355339,12.6464466 L1.70710678,10 L4.35355339,7.35355339 Z" id="Path-44" fill="#FFFFFF" fill-rule="nonzero"></path>
                    <path d="M20.7071068,10 L23.3535534,7.35355339 C23.5488155,7.15829124 23.5488155,6.84170876 23.3535534,6.64644661 C23.1582912,6.45118446 22.8417088,6.45118446 22.6464466,6.64644661 L19.6464466,9.64644661 C19.4511845,9.84170876 19.4511845,10.1582912 19.6464466,10.3535534 L22.6464466,13.3535534 C22.8417088,13.5488155 23.1582912,13.5488155 23.3535534,13.3535534 C23.5488155,13.1582912 23.5488155,12.8417088 23.3535534,12.6464466 L20.7071068,10 Z" id="Path-44" fill="#FFFFFF" fill-rule="nonzero" transform="translate(21.500000, 10.000000) scale(-1, 1) translate(-21.500000, -10.000000) "></path>
                </g>
            </g>
        </g>
    </g>
</svg>