<?xml version="1.0" encoding="UTF-8"?>
<svg width="500px" height="70px" viewBox="0 0 500 70" version="1.1" xmlns="http://www.w3.org/2000/svg" xmlns:xlink="http://www.w3.org/1999/xlink">
    <!-- Generator: Sketch 57.1 (83088) - https://sketch.com -->
    <title>made_bg</title>
    <desc>Created with Sketch.</desc>
    <defs>
        <rect id="path-1" x="0.723255814" y="0" width="500" height="70"></rect>
    </defs>
    <g id="Page-1" stroke="none" stroke-width="1" fill="none" fill-rule="evenodd">
        <g id="Group-6" transform="translate(-80.000000, -1522.000000)">
            <g id="made_bg" transform="translate(79.276744, 1522.000000)">
                <mask id="mask-2" fill="white">
                    <use xlink:href="#path-1"></use>
                </mask>
                <g id="Mask"></g>
                <g id="Group-23" mask="url(#mask-2)" fill="#3C1212" fill-rule="nonzero" opacity="0.16">
                    <g transform="translate(249.223256, 39.000000) rotate(-90.000000) translate(-249.223256, -39.000000) translate(174.223256, -299.500000)" id="Combined-Shape">
                        <path d="M54.8032017,-1.8189894e-12 C55.7492885,-1.8189894e-12 56.5251999,0.717812028 56.6004259,1.63078594 L56.6064034,1.77648536 L56.6064034,37.6279122 L85.4718544,66.0656909 C85.7677496,66.3572021 85.9501897,66.7395933 85.9911763,67.146272 L86,67.3218558 L86,100.041 L91.3935966,94.7157289 L91.3935966,58.7806314 C91.3935966,58.7032647 91.3985932,58.6270506 91.4082853,58.5522863 L89.0281456,56.1921124 C88.7322504,55.8990041 88.5498103,55.514518 88.5088237,55.1056112 L88.5,54.9290655 L88.5,25.2862181 C88.5,24.2997171 89.3073209,23.5 90.3032017,23.5 C91.2492885,23.5 92.0251999,24.2217447 92.1004259,25.1397204 L92.1064034,25.2862181 L92.1064034,54.1891897 L120.971854,82.7827689 C121.26775,83.0758772 121.45019,83.4603633 121.491176,83.8692701 L121.5,84.0458158 L121.5,113.713782 C121.5,114.371313 121.141339,114.945864 120.60724,115.255937 L120.606403,139.778778 L149.471854,168.330576 C149.76775,168.623256 149.95019,169.00718 149.991176,169.41549 L150,169.591777 L150,199.216392 C150,200.201451 149.192679,201 148.196798,201 C147.250712,201 146.4748,200.27931 146.399574,199.362676 L146.393597,199.216392 L146.393597,170.330572 L117.528146,141.778774 C117.23225,141.486094 117.04981,141.10217 117.008824,140.693861 L117,140.517573 L117,103.783608 C117,103.127037 117.358661,102.553326 117.89276,102.243707 L117.893597,84.7856916 L114.5,81.424 L114.5,107.929065 C114.5,108.001555 114.495552,108.07359 114.486805,108.144813 C114.547245,108.299038 114.58626,108.464707 114.600426,108.637324 L114.606403,108.783608 L114.606403,144.778778 L143.471854,173.330576 C143.76775,173.623256 143.95019,174.00718 143.991176,174.41549 L144,174.591777 L144,204.216392 C144,205.201451 143.192679,206 142.196798,206 C141.250712,206 140.4748,205.27931 140.399574,204.362676 L140.393597,204.216392 L140.393597,175.330572 L111.528146,146.778774 C111.23225,146.486094 111.04981,146.10217 111.008824,145.693861 L111,145.517573 L111,112.135 L107.606,115.497 L107.606403,148.690081 L136.471854,177.283245 C136.76775,177.576349 136.95019,177.960829 136.991176,178.36973 L137,178.546273 L137,208.213808 C137,209.200295 136.192679,210 135.196798,210 C134.250712,210 133.4748,209.278266 133.399574,208.360303 L133.393597,208.213808 L133.393597,179.286138 L104.528146,150.692975 C104.23225,150.399871 104.04981,150.01539 104.008824,149.606489 L104,149.429946 L104,119.069 L101.606,121.44 L101.606403,152.597376 L130.471854,181.233774 C130.76775,181.527322 130.95019,181.912384 130.991176,182.321903 L131,182.498713 L131,212.211107 C131,213.199085 130.192679,214 129.196798,214 C128.250712,214 127.4748,213.277175 127.399574,212.357824 L127.393597,212.211107 L127.393597,183.239696 L98.5281456,154.603298 C98.2322504,154.309751 98.0498103,153.924689 98.0088237,153.51517 L98,153.33836 L98,125.013 L95.0682839,127.919119 C95.0834748,127.991155 95.094285,128.064784 95.1004259,128.13972 L95.1064034,128.286218 L95.1064034,157.18919 L123.971854,185.782769 C124.26775,186.075877 124.45019,186.460363 124.491176,186.86927 L124.5,187.045816 L124.5,216.713782 C124.5,217.700283 123.692679,218.5 122.696798,218.5 C121.750712,218.5 120.9748,217.778255 120.899574,216.86028 L120.893597,216.713782 L120.893597,187.785692 L117.5,184.424 L117.5,206.084228 L117.497303,206.171201 C117.551729,206.318467 117.587089,206.474817 117.600426,206.637324 L117.606403,206.783608 L117.606403,242.778778 L146.471854,271.330576 C146.76775,271.623256 146.95019,272.00718 146.991176,272.41549 L147,272.591777 L147,302.216392 C147,303.201451 146.192679,304 145.196798,304 C144.250712,304 143.4748,303.27931 143.399574,302.362676 L143.393597,302.216392 L143.393597,273.330572 L114.528146,244.778774 C114.23225,244.486094 114.04981,244.10217 114.008824,243.693861 L114,243.517573 L114,210.352 L111.106,213.267 L111.106403,247.010933 L139.971854,275.687646 C140.272446,275.986272 140.455953,276.379475 140.493021,276.796853 L140.5,276.954365 L140.5,306.708589 C140.5,307.697958 139.692679,308.5 138.696798,308.5 C137.750712,308.5 136.9748,307.776157 136.899574,306.855512 L136.893597,306.708589 L136.893597,277.696392 L108.028146,249.019679 C107.727554,248.721052 107.544047,248.32785 107.506979,247.910472 L107.5,247.75296 L107.5,216.898 L104.606,219.813 L104.606403,251.056414 L133.471854,279.47873 C133.76775,279.770083 133.95019,280.152266 133.991176,280.558724 L134,280.734212 L134,310.224481 C134,311.205073 133.192679,312 132.196798,312 C131.250712,312 130.4748,311.282578 130.399574,310.370101 L130.393597,310.224481 L130.393597,281.469657 L101.528146,253.04734 C101.23225,252.755987 101.04981,252.373804 101.008824,251.967347 L101,251.791858 L101,223.444 L97.606,226.862 L97.6064034,255.970695 L126.471854,284.432988 C126.76775,284.724751 126.95019,285.107472 126.991176,285.514501 L127,285.690236 L127,315.221983 C127,316.203955 126.192679,317 125.196798,317 C124.250712,317 123.4748,316.281569 123.399574,315.367808 L123.393597,315.221983 L123.393597,286.426715 L94.5281456,257.964422 C94.2322504,257.672659 94.0498103,257.289938 94.0088237,256.882909 L94,256.707174 L94,230.494 L91.106,233.408 L91.1064034,259.575738 L106.422043,274.65035 C106.831651,274.828798 107.161503,275.153777 107.34396,275.558285 L119.971854,287.989042 C120.26775,288.280302 120.45019,288.662364 120.491176,289.068693 L120.5,289.244126 L120.501404,309.182416 C120.553508,309.326397 120.587427,309.478935 120.600426,309.637324 L120.606403,309.783608 L120.606403,345.778778 L149.471854,374.330576 C149.76775,374.623256 149.95019,375.00718 149.991176,375.41549 L150,375.591777 L150,405.216392 C150,406.201451 149.192679,407 148.196798,407 C147.250712,407 146.4748,406.27931 146.399574,405.362676 L146.393597,405.216392 L146.393597,376.330572 L117.528146,347.778774 C117.23225,347.486094 117.04981,347.10217 117.008824,346.693861 L117,346.517573 L116.999513,319.325837 C116.948095,319.185112 116.914226,319.036145 116.900505,318.881494 L116.893597,318.725044 L116.893597,289.979337 L114.5,287.623 L114.5,313.929065 C114.5,314.4028 114.31002,314.857132 113.971854,315.192112 L113.606,315.554 L113.606403,349.778778 L142.471854,378.330576 C142.76775,378.623256 142.95019,379.00718 142.991176,379.41549 L143,379.591777 L143,409.216392 C143,410.201451 142.192679,411 141.196798,411 C140.250712,411 139.4748,410.27931 139.399574,409.362676 L139.393597,409.216392 L139.393597,380.330572 L110.528146,351.778774 C110.23225,351.486094 110.04981,351.10217 110.008824,350.693861 L110,350.517573 L110,319.126 L107.606,321.497 L107.606403,353.690081 L136.471854,382.283245 C136.76775,382.576349 136.95019,382.960829 136.991176,383.36973 L137,383.546273 L137,413.213808 C137,414.200295 136.192679,415 135.196798,415 C134.250712,415 133.4748,414.278266 133.399574,413.360303 L133.393597,413.213808 L133.393597,384.286138 L104.528146,355.692975 C104.23225,355.399871 104.04981,355.01539 104.008824,354.606489 L104,354.429946 L104,325.069 L100.606,328.431 L100.606403,358.597376 L129.471854,387.233774 C129.76775,387.527322 129.95019,387.912384 129.991176,388.321903 L130,388.498713 L130,418.211107 C130,419.199085 129.192679,420 128.196798,420 C127.250712,420 126.4748,419.277175 126.399574,418.357824 L126.393597,418.211107 L126.393597,389.239696 L97.5281456,360.603298 C97.2322504,360.309751 97.0498103,359.924689 97.0088237,359.51517 L97,359.33836 L97,332.003 L94.106,334.87 L94.1064034,362.18919 L96.9295056,364.983965 C96.9565143,365.009108 96.9827435,365.035068 97.0081533,365.061804 L122.971854,390.782769 C123.26775,391.075877 123.45019,391.460363 123.491176,391.86927 L123.5,392.045816 L123.5,421.713782 C123.5,422.700283 122.692679,423.5 121.696798,423.5 C120.750712,423.5 119.9748,422.778255 119.899574,421.86028 L119.893597,421.713782 L119.893597,392.785692 L116.5,389.424 L116.5,411.450766 C116.5,411.634739 116.471247,411.815765 116.416215,411.987907 C116.517206,412.185001 116.581348,412.404862 116.600426,412.637324 L116.606403,412.783608 L116.606403,448.778778 L145.471854,477.330576 C145.76775,477.623256 145.95019,478.00718 145.991176,478.41549 L146,478.591777 L146,508.216392 C146,509.201451 145.192679,510 144.196798,510 C143.250712,510 142.4748,509.27931 142.399574,508.362676 L142.393597,508.216392 L142.393597,479.330572 L113.528146,450.778774 C113.23225,450.486094 113.04981,450.10217 113.008824,449.693861 L113,449.517573 L113,415.663 L110.492088,418.15895 C110.549474,418.310493 110.586668,418.471813 110.600426,418.639697 L110.606403,418.786192 L110.606403,452.690081 L139.471854,481.283245 C139.76775,481.576349 139.95019,481.960829 139.991176,482.36973 L140,482.546273 L140,512.213808 C140,513.200295 139.192679,514 138.196798,514 C137.250712,514 136.4748,513.278266 136.399574,512.360303 L136.393597,512.213808 L136.393597,483.286138 L107.528146,454.692975 C107.23225,454.399871 107.04981,454.01539 107.008824,453.606489 L107,453.429946 L107,421.628 L103.606,425.002 L103.606403,456.597376 L132.471854,485.233774 C132.76775,485.527322 132.95019,485.912384 132.991176,486.321903 L133,486.498713 L133,516.211107 C133,517.199085 132.192679,518 131.196798,518 C130.250712,518 129.4748,517.277175 129.399574,516.357824 L129.393597,516.211107 L129.393597,487.239696 L100.528146,458.603298 C100.23225,458.309751 100.04981,457.924689 100.008824,457.51517 L100,457.33836 L100,428.587 L97.4688361,431.104102 C97.5394692,431.272834 97.5848901,431.454604 97.6004259,431.64477 L97.6064034,431.791719 L97.6064034,461.500384 L126.471854,490.182017 C126.772446,490.480694 126.955953,490.873964 126.993021,491.291414 L127,491.448953 L127,521.208281 C127,522.19782 126.192679,523 125.196798,523 C124.250712,523 123.4748,522.276033 123.399574,521.35523 L123.393597,521.208281 L123.393597,492.191107 L94.5281456,463.509475 C94.2275536,463.210797 94.0440472,462.817527 94.006979,462.400078 L94,462.242538 L94,434.551 L90.106,438.422 L90.1064034,465.091303 L118.971854,493.730534 C119.26775,494.02411 119.45019,494.40921 119.491176,494.81877 L119.5,494.995597 L119.501404,516.182416 C119.553508,516.326397 119.587427,516.478935 119.600426,516.637324 L119.606403,516.783608 L119.606403,552.778778 L148.471854,581.330576 C148.76775,581.623256 148.95019,582.00718 148.991176,582.41549 L149,582.591777 L149,612.216392 C149,613.201451 148.192679,614 147.196798,614 C146.250712,614 145.4748,613.27931 145.399574,612.362676 L145.393597,612.216392 L145.393597,583.330572 L116.528146,554.778774 C116.23225,554.486094 116.04981,554.10217 116.008824,553.693861 L116,553.517573 L115.999293,525.315892 C115.94798,525.174176 115.914182,525.024175 115.90049,524.868458 L115.893597,524.71093 L115.893597,495.736654 L114,493.858 L114,519.525851 C114,520.001044 113.81002,520.456775 113.471854,520.792787 L112.606,521.652 L112.606403,556.778778 L141.471854,585.330576 C141.76775,585.623256 141.95019,586.00718 141.991176,586.41549 L142,586.591777 L142,616.216392 C142,617.201451 141.192679,618 140.196798,618 C139.250712,618 138.4748,617.27931 138.399574,616.362676 L138.393597,616.216392 L138.393597,587.330572 L109.528146,558.778774 C109.23225,558.486094 109.04981,558.10217 109.008824,557.693861 L109,557.517573 L109,525.235 L106.606,527.613 L106.606403,560.690081 L135.471854,589.283245 C135.76775,589.576349 135.95019,589.960829 135.991176,590.36973 L136,590.546273 L136,620.213808 C136,621.200295 135.192679,622 134.196798,622 C133.250712,622 132.4748,621.278266 132.399574,620.360303 L132.393597,620.213808 L132.393597,591.286138 L103.528146,562.692975 C103.23225,562.399871 103.04981,562.01539 103.008824,561.606489 L103,561.429946 L103,531.197 L100.595157,533.587974 C100.597183,533.605962 100.598941,533.624031 100.600426,533.642176 L100.606403,533.788893 L100.606403,565.597376 L129.471854,594.233774 C129.76775,594.527322 129.95019,594.912384 129.991176,595.321903 L130,595.498713 L130,625.211107 C130,626.199085 129.192679,627 128.196798,627 C127.250712,627 126.4748,626.277175 126.399574,625.357824 L126.393597,625.211107 L126.393597,596.239696 L97.5281456,567.603298 C97.2322504,567.309751 97.0498103,566.924689 97.0088237,566.51517 L97,566.33836 L97,537.159 L93.106,541.028 L93.1064034,569.18919 L121.971854,597.782769 C122.26775,598.075877 122.45019,598.460363 122.491176,598.86927 L122.5,599.045816 L122.5,628.713782 C122.5,629.700283 121.692679,630.5 120.696798,630.5 C119.750712,630.5 118.9748,629.778255 118.899574,628.86028 L118.893597,628.713782 L118.893597,599.785692 L116.5,597.415 L116.5,620.450766 C116.5,620.92116 116.312027,621.372288 115.977432,621.704907 L89.5457493,647.980518 C88.848992,648.673161 87.7193252,648.673161 87.022568,647.980518 C86.3258107,647.287875 86.3258107,646.164878 87.022568,645.472235 L112.931683,619.716107 L112.931683,595.273624 C112.931683,594.880432 113.060387,594.517124 113.278201,594.223061 L110.5,591.471 L110.5,616.310949 C110.5,616.781696 110.31002,617.233163 109.971854,617.566032 L81.1064034,645.979337 L81.1064034,674.725044 C81.1064034,675.705325 80.2990825,676.5 79.3032017,676.5 C78.3073209,676.5 77.5,675.705325 77.5,674.725044 L77.5,645.244126 C77.5,644.773378 77.6899796,644.321911 78.0281456,643.989042 L106.893597,615.575738 L106.893597,588.274956 C106.893597,588.157887 106.905111,588.043464 106.927085,587.932727 L104,585.033 L104,611.242538 C104,611.717732 103.81002,612.173462 103.471854,612.509475 L74.6064034,641.191107 L74.6064034,670.208281 C74.6064034,671.19782 73.7990825,672 72.8032017,672 C71.8073209,672 71,671.19782 71,670.208281 L71,640.448953 C71,639.97376 71.1899796,639.518029 71.5281456,639.182017 L100.393597,610.500384 L100.393,581.459 L97,578.098 L97,607.33836 C97,607.812804 96.8100204,608.267816 96.4718544,608.603298 L74.7019498,630.202161 C74.5701256,630.398546 74.3997625,630.567624 74.201479,630.698932 L68,636.848 L68,637.213853 C68,637.634469 67.853223,638.021128 67.6076358,638.326317 L67.6064034,666.211107 C67.6064034,667.199085 66.7990825,668 65.8032017,668 C64.8073209,668 64,667.199085 64,666.211107 L64,636.498713 C64,636.091927 64.1396588,635.699427 64.3926344,635.384302 L64.3935966,596.141104 L35.5281456,567.548655 C35.2322504,567.255559 35.0498103,566.871088 35.0088237,566.462197 L35,566.285658 L35,538.003 L31.606,541.365 L31.6064034,569.612732 L60.4718544,598.135073 C60.7677496,598.427451 60.9501897,598.81098 60.9911763,599.218868 L61,599.394974 L61,666.218232 C61,667.202275 60.1926791,668 59.1967983,668 C58.2507115,668 57.4748001,667.280053 57.3995741,666.364365 L57.3935966,666.218232 L57.3935966,600.133006 L55.5,598.262 L55.5,620.450766 C55.5,620.92116 55.3120267,621.372288 54.977432,621.704907 L28.5457493,647.980518 C27.848992,648.673161 26.7193252,648.673161 26.022568,647.980518 C25.3258107,647.287875 25.3258107,646.164878 26.022568,645.472235 L51.9316828,619.716107 L51.9316828,595.273624 C51.9316828,595.109513 51.9541039,594.950609 51.9960673,594.799772 L48.5,591.345 L48.5,616.310949 C48.5,616.781696 48.3100204,617.233163 47.9718544,617.566032 L19.1064034,645.979337 L19.1064034,674.725044 C19.1064034,675.705325 18.2990825,676.5 17.3032017,676.5 C16.3073209,676.5 15.5,675.705325 15.5,674.725044 L15.5,645.244126 C15.5,644.773378 15.6899796,644.321911 16.0281456,643.989042 L44.8935966,615.575738 L44.8935966,588.274956 C44.8935966,588.123557 44.9128537,587.976586 44.9490884,587.836285 L42,584.922 L42,611.242538 C42,611.717732 41.8100204,612.173462 41.4718544,612.509475 L12.6064034,641.191107 L12.6064034,670.208281 C12.6064034,671.19782 11.7990825,672 10.8032017,672 C9.8073209,672 9,671.19782 9,670.208281 L9,640.448953 C9,639.97376 9.18997963,639.518029 9.52814555,639.182017 L38.3935966,610.500384 L38.393,581.358 L36,578.993 L36,607.33836 C36,607.812804 35.8100204,608.267816 35.4718544,608.603298 L6.60640342,637.239696 L6.60640342,666.211107 C6.60640342,667.199085 5.79908251,668 4.80320171,668 C3.8073209,668 3,667.199085 3,666.211107 L3,636.498713 C3,636.024269 3.18997963,635.569257 3.52814555,635.233774 L32.3935966,606.597376 L32.393,575.429 L28.5281456,571.610664 C28.2322504,571.318286 28.0498103,570.934758 28.0088237,570.52687 L28,570.350764 L28,544.937 L23.1064034,549.785692 L23.1064034,578.713782 C23.1064034,579.700283 22.2990825,580.5 21.3032017,580.5 C20.3073209,580.5 19.5,579.700283 19.5,578.713782 L19.5,549.045816 C19.5,548.572081 19.6899796,548.11775 20.0281456,547.782769 L48.3414068,519.736117 C48.4525157,519.584857 48.5872202,519.451522 48.7402014,519.341354 L48.8935966,519.18919 L48.8935966,490.286218 C48.8935966,490.132397 48.9132249,489.983117 48.9501358,489.840702 L46,486.913 L46,515.33836 C46,515.812804 45.8100204,516.267816 45.4718544,516.603298 L16.6064034,545.239696 L16.6064034,574.211107 C16.6064034,575.199085 15.7990825,576 14.8032017,576 C13.8073209,576 13,575.199085 13,574.211107 L13,544.498713 C13,544.024269 13.1899796,543.569257 13.5281456,543.233774 L42.3935966,514.597376 L42.393,483.334 L39,479.968 L39,511.429946 C39,511.903674 38.8100204,512.357999 38.4718544,512.692975 L9.60640342,541.286138 L9.60640342,570.213808 C9.60640342,571.200295 8.79908251,572 7.80320171,572 C6.8073209,572 6,571.200295 6,570.213808 L6,540.546273 C6,540.072546 6.18997963,539.618221 6.52814555,539.283245 L35.3935966,510.690081 L35.3935966,476.786192 C35.3935966,476.663234 35.406139,476.543177 35.4300256,476.427209 L33,474.016 L33,506.517573 C33,506.990615 32.8100204,507.444283 32.4718544,507.778774 L3.60640342,536.330572 L3.60640342,565.216392 C3.60640342,566.201451 2.79908251,567 1.80320171,567 C0.807320904,567 2.72848411e-12,566.201451 2.72848411e-12,565.216392 L2.72848411e-12,535.591777 C2.72848411e-12,535.118735 0.189979634,534.665067 0.528145552,534.330576 L29.3935966,505.778778 L29.393,470.436 L26.0281456,467.097424 C25.7322504,466.803847 25.5498103,466.418747 25.5088237,466.009188 L25.5,465.83236 L25.5,438.28907 C25.5,438.192664 25.5076855,438.098039 25.5224819,438.005765 C25.4356464,437.463972 25.6024491,436.889873 26.022568,436.472235 L51.9316828,410.716107 L51.931,386.868 L48.5,383.47 L48.5,407.310949 C48.5,407.781696 48.3100204,408.233163 47.9718544,408.566032 L19.1064034,436.979337 L19.1064034,465.725044 C19.1064034,466.705325 18.2990825,467.5 17.3032017,467.5 C16.3073209,467.5 15.5,466.705325 15.5,465.725044 L15.5,436.244126 C15.5,435.773378 15.6899796,435.321911 16.0281456,434.989042 L44.8935966,406.575738 L44.893,379.898 L42,377.033 L42,403.242538 C42,403.717732 41.8100204,404.173462 41.4718544,404.509475 L12.6064034,433.191107 L12.6064034,462.208281 C12.6064034,463.19782 11.7990825,464 10.8032017,464 C9.8073209,464 9,463.19782 9,462.208281 L9,432.448953 C9,431.97376 9.18997963,431.518029 9.52814555,431.182017 L38.3935966,402.500384 L38.393,373.461 L36,371.091 L36,399.33836 C36,399.812804 35.8100204,400.267816 35.4718544,400.603298 L6.60640342,429.239696 L6.60640342,458.211107 C6.60640342,459.199085 5.79908251,460 4.80320171,460 C3.8073209,460 3,459.199085 3,458.211107 L3,428.498713 C3,428.024269 3.18997963,427.569257 3.52814555,427.233774 L32.3935966,398.597376 L32.393,367.519 L29.5281456,364.682892 C29.2322504,364.389866 29.0498103,364.005488 29.0088237,363.596697 L29,363.420201 L29,337.947 L23.1064034,343.785692 L23.1064034,372.713782 C23.1064034,373.700283 22.2990825,374.5 21.3032017,374.5 C20.3073209,374.5 19.5,373.700283 19.5,372.713782 L19.5,343.045816 C19.5,342.572081 19.6899796,342.11775 20.0281456,341.782769 L35.5,326.456 L35.5,326.283709 C35.5,325.298594 36.3073209,324.5 37.3032017,324.5 C37.3585284,324.5 37.4132732,324.502465 37.4673298,324.507289 L48.8379032,313.243916 C48.8554675,313.219739 48.8736283,313.196015 48.8923642,313.172764 L48.8935966,284.286218 C48.8935966,283.943409 48.9910856,283.623155 49.1600988,283.351177 L46,280.241 L46,309.33836 C46,309.812804 45.8100204,310.267816 45.4718544,310.603298 L16.6064034,339.239696 L16.6064034,368.211107 C16.6064034,369.199085 15.7990825,370 14.8032017,370 C13.8073209,370 13,369.199085 13,368.211107 L13,338.498713 C13,338.024269 13.1899796,337.569257 13.5281456,337.233774 L42.3935966,308.597376 L42.3935966,276.788893 L42.397,276.694 L39,273.35 L39,304.429946 C39,304.903674 38.8100204,305.357999 38.4718544,305.692975 L9.60640342,334.286138 L9.60640342,363.213808 C9.60640342,364.200295 8.79908251,365 7.80320171,365 C6.8073209,365 6,364.200295 6,363.213808 L6,333.546273 C6,333.072546 6.18997963,332.618221 6.52814555,332.283245 L35.3935966,303.690081 L35.393,269.8 L33,267.444 L33,300.517573 C33,300.990615 32.8100204,301.444283 32.4718544,301.778774 L3.60640342,330.330572 L3.60640342,359.216392 C3.60640342,360.201451 2.79908251,361 1.80320171,361 C0.807320904,361 2.72848411e-12,360.201451 2.72848411e-12,359.216392 L2.72848411e-12,329.591777 C2.72848411e-12,329.118735 0.189979634,328.665067 0.528145552,328.330576 L29.3935966,299.778778 L29.393,263.894 L27.0281456,261.566032 C26.7322504,261.274772 26.5498103,260.89271 26.5088237,260.486381 L26.5,260.310949 L26.5,232.274956 C26.5,231.429551 27.1004476,230.72219 27.9044563,230.543545 L33,225.412 L33,224.786147 C33,223.799685 33.8073209,223 34.8032017,223 C34.9829361,223 35.1565287,223.026048 35.3203421,223.07454 L39,219.369 L39,218.786147 C39,217.799685 39.8073209,217 40.8032017,217 C40.9711744,217 41.1337828,217.02275 41.2880578,217.065309 L45.5,212.823 L45.5,212.281349 C45.5,211.297537 46.3073209,210.5 47.3032017,210.5 C47.4580417,210.5 47.6083235,210.51928 47.7517213,210.555542 L52.1087653,206.167429 C52.258543,205.763098 52.5531786,205.427429 52.9307977,205.221379 L52.9316828,181.296801 C52.9316828,181.164252 52.9459343,181.035055 52.9729785,180.91068 L49.5,177.471 L49.5,201.83236 C49.5,202.306851 49.3100204,202.761908 48.9718544,203.097424 L20.1064034,231.736654 L20.1064034,260.71093 C20.1064034,261.699006 19.2990825,262.5 18.3032017,262.5 C17.3073209,262.5 16.5,261.699006 16.5,260.71093 L16.5,230.995597 C16.5,230.521106 16.6899796,230.066049 17.0281456,229.730534 L45.8935966,201.091303 L45.8935966,174.28907 C45.8935966,174.168226 45.9056723,174.050181 45.9286919,173.936057 L42.5,170.54 L42.5,196.929065 C42.5,197.4028 42.3100204,197.857132 41.9718544,198.192112 L13.1064034,226.785692 L13.1064034,255.713782 C13.1064034,256.700283 12.2990825,257.5 11.3032017,257.5 C10.3073209,257.5 9.5,256.700283 9.5,255.713782 L9.5,226.045816 C9.5,225.572081 9.68997963,225.11775 10.0281456,224.782769 L38.8935966,196.18919 L38.8935966,167.286218 C38.8935966,167.186159 38.9019021,167.088021 38.9178675,166.992444 L36.5,164.598 L36.5,193.021367 C36.5,193.49438 36.3100204,193.948019 35.9718544,194.282489 L7.10640342,222.832496 L7.10640342,251.716504 C7.10640342,252.701502 6.29908251,253.5 5.30320171,253.5 C4.3073209,253.5 3.5,252.701502 3.5,251.716504 L3.5,222.093748 C3.5,221.620735 3.68997963,221.167096 4.02814555,220.832625 L32.8935966,192.282619 L32.8935966,161.283496 C32.8935966,161.201528 32.8991873,161.120851 32.9100122,161.041818 L30.5281456,158.682892 C30.2322504,158.389866 30.0498103,158.005488 30.0088237,157.596697 L30,157.420201 L30,131.947 L24.1064034,137.785692 L24.1064034,166.713782 C24.1064034,167.700283 23.2990825,168.5 22.3032017,168.5 C21.3073209,168.5 20.5,167.700283 20.5,166.713782 L20.5,137.045816 C20.5,136.572081 20.6899796,136.11775 21.0281456,135.782769 L49,108.074 L49,107.791134 C49,107.131793 49.358661,106.555661 49.8927601,106.244735 L49.893,78.842 L47,75.976 L47,103.33836 C47,103.812804 46.8100204,104.267816 46.4718544,104.603298 L17.6064034,133.239696 L17.6064034,162.211107 C17.6064034,163.199085 16.7990825,164 15.8032017,164 C14.8073209,164 14,163.199085 14,162.211107 L14,132.498713 C14,132.024269 14.1899796,131.569257 14.5281456,131.233774 L43.3935966,102.597376 L43.393,72.403 L40,69.042 L40,99.4299463 C40,99.9036739 39.8100204,100.357999 39.4718544,100.692975 L10.6064034,129.286138 L10.6064034,158.213808 C10.6064034,159.200295 9.79908251,160 8.80320171,160 C7.8073209,160 7,159.200295 7,158.213808 L7,128.546273 C7,128.072546 7.18997963,127.618221 7.52814555,127.283245 L36.3935966,98.6900813 L36.393,65.469 L34,63.098 L34,95.5175729 C34,95.9906151 33.8100204,96.4442828 33.4718544,96.7787742 L4.60640342,125.330572 L4.60640342,154.216392 C4.60640342,155.201451 3.79908251,156 2.80320171,156 C1.8073209,156 1,155.201451 1,154.216392 L1,124.591777 C1,124.118735 1.18997963,123.665067 1.52814555,123.330576 L30.3935966,94.7787782 L30.393,59.525 L27.0281456,56.1921124 C26.7322504,55.8990041 26.5498103,55.514518 26.5088237,55.1056112 L26.5,54.9290655 L26.5,25.2862181 C26.5,24.2997171 27.3073209,23.5 28.3032017,23.5 C29.2492885,23.5 30.0251999,24.2217447 30.1004259,25.1397204 L30.1064034,25.2862181 L30.1064034,54.1891897 L45.0627636,69.0048672 C45.1070171,69.0016414 45.1517145,69 45.1967983,69 C46.1926791,69 47,69.8009147 47,70.788893 L47,70.924 L58.9718544,82.7827689 C59.2677496,83.0758772 59.4501897,83.4603633 59.4911763,83.8692701 L59.5,84.0458158 L59.5,113.713782 C59.5,114.134415 59.353223,114.521089 59.1076358,114.82629 L59.1064034,140.118191 L62,142.968 L62,124.478973 C62,124.00672 62.1899796,123.553809 62.5281456,123.219876 L62.898,122.853 L62.8935966,122.720918 L62.8935966,80.3873774 L34.0281456,51.9080337 C33.7322504,51.6160964 33.5498103,51.2331464 33.5088237,50.8258732 L33.5,50.6500328 L33.5,18.2790819 C33.5,17.2965221 34.3073209,16.5 35.3032017,16.5 C36.2492885,16.5 37.0251999,17.2188612 37.1004259,18.1331695 L37.1064034,18.2790819 L37.1064034,49.913113 L65.9718544,78.3924566 C66.2677496,78.6843939 66.4501897,79.067344 66.4911763,79.4746171 L66.5,79.6504575 L66.5,119.297 L69.893,115.946 L69.8935966,76.5222756 L41.0281456,48.042932 C40.7322504,47.7509947 40.5498103,47.3680446 40.5088237,46.9607715 L40.5,46.7849311 L40.5,12.2790819 C40.5,11.2965221 41.3073209,10.5 42.3032017,10.5 C43.2492885,10.5 44.0251999,11.2188612 44.1004259,12.1331695 L44.1064034,12.2790819 L44.1064034,46.0480112 L72.9718544,74.5273549 C73.2677496,74.8192922 73.4501897,75.2022422 73.4911763,75.6095154 L73.5,75.7853558 L73.5,112.384 L75.9155883,109.999585 C75.908614,109.955842 75.9032552,109.91157 75.8995741,109.86683 L75.8935966,109.720918 L75.8935966,71.6571739 L47.0281456,43.1778302 C46.7322504,42.885893 46.5498103,42.5029429 46.5088237,42.0956697 L46.5,41.9198294 L46.5,5.27908189 C46.5,4.29652209 47.3073209,3.5 48.3032017,3.5 C49.2492885,3.5 50.0251999,4.21886119 50.1004259,5.13316951 L50.1064034,5.27908189 L50.1064034,41.1829095 L78.9718544,69.6622532 C79.2677496,69.9541904 79.4501897,70.3371405 79.4911763,70.7444137 L79.5,70.920254 L79.5,106.459 L82.4276764,103.569007 C82.4145956,103.503627 82.405156,103.436958 82.3995741,103.369214 L82.3935966,103.223515 L82.3935966,68.0577001 L53.5281456,39.6199214 C53.2322504,39.3284102 53.0498103,38.946019 53.0088237,38.5393403 L53,38.3637565 L53,1.77648536 C53,0.795359588 53.8073209,-1.8189894e-12 54.8032017,-1.8189894e-12 Z M42,531.069 L38.606,534.431 L38.6064034,565.545812 L67.4718544,594.13826 C67.7677496,594.431357 67.9501897,594.815828 67.9911763,595.224718 L68,595.401257 L68,631.789 L71.393,628.422 L71.3935966,591.925918 L42.5281456,563.488139 C42.2322504,563.196628 42.0498103,562.814237 42.0088237,562.407558 L42,562.231974 L42,531.069 Z M48,525.126 L45.5873378,527.517221 C45.5929019,527.554708 45.5972775,527.592576 45.6004259,527.630786 L45.6064034,527.776485 L45.6064034,561.49613 L74.4718544,589.933909 C74.7677496,590.22542 74.9501897,590.607811 74.9911763,591.01449 L75,591.190073 L75,624.844 L77.4086138,622.453843 C77.4049331,622.425832 77.4019145,622.397618 77.3995741,622.369214 L77.3935966,622.223515 L77.3935966,587.0577 L48.5281456,558.619921 C48.2322504,558.32841 48.0498103,557.946019 48.0088237,557.53934 L48,557.363757 L48,525.126 Z M52.5,493.362 L52.5,519.929065 C52.5,520.4028 52.3100204,520.857132 51.9718544,521.192112 L51.606,521.554 L51.6064034,556.627912 L80.4718544,585.065691 C80.7677496,585.357202 80.9501897,585.739593 80.9911763,586.146272 L81,586.321856 L81,618.892 L83.4150971,616.496757 C83.4083619,616.45403 83.4031683,616.410801 83.3995741,616.367125 L83.3935966,616.221239 L83.3935966,583.144887 L54.5281456,554.670678 C54.2322504,554.378793 54.0498103,553.995912 54.0088237,553.588712 L54,553.412904 L54,516.778761 C54,516.123975 54.358661,515.551823 54.8927601,515.243044 L54.8935966,495.736654 L52.5,493.362 Z M89.5,544.611 L84.6064034,549.47442 L84.6064034,579.208281 L84.602,579.306 L86.4718544,581.150326 C86.7677496,581.442211 86.9501897,581.825092 86.9911763,582.232292 L87,582.4081 L87,612.939 L93.3935966,606.597376 L93.3935966,574.788893 C93.3935966,574.705532 93.399344,574.623503 93.4104672,574.543175 L90.0281456,571.192112 C89.7322504,570.899004 89.5498103,570.514518 89.5088237,570.105611 L89.5,569.929065 L89.5,544.611 Z M107,486.913 L107,515.392601 C107,515.867794 106.81002,516.323525 106.471854,516.659537 L77.6064034,545.34117 L77.6064034,572.208281 C77.6064034,572.271252 77.6031341,572.333464 77.5967549,572.394759 L81,575.753 L81,548.732266 C81,548.257072 81.1899796,547.801342 81.5281456,547.465329 L103.247953,525.881692 C103.40312,525.620463 103.623448,525.401769 103.886807,525.247531 L109.197206,519.97174 C109.368622,519.640647 109.641611,519.369519 109.975504,519.198583 L110.393597,518.783697 L110.393,490.279 L107,486.913 Z M101,480.96 L101,511.263207 C101,511.734767 100.81002,512.187012 100.471854,512.520455 L71.6064034,540.982748 L71.6064034,566.221983 C71.6064034,566.30576 71.6005273,566.388183 71.5891592,566.468874 L74,568.848 L74,544.599016 C74,544.123822 74.1899796,543.668092 74.5281456,543.332079 L103.393597,514.650447 L103.393,483.334 L101,480.96 Z M94,474.015 L94,506.396828 C94,506.868387 93.8100204,507.320632 93.4718544,507.654075 L78.5,522.416 L78.5,522.71052 C78.5,523.698823 77.6926791,524.5 76.6967983,524.5 C76.5996308,524.5 76.5042583,524.492373 76.4112556,524.477689 L71.8088194,529.015891 C71.6336899,529.360645 71.3489873,529.641485 70.9999585,529.813627 L65.5,535.234 L65.5,535.71052 C65.5,536.369252 65.141339,536.944852 64.6072399,537.255491 L64.6064034,559.221983 C64.6064034,559.333956 64.5959062,559.443512 64.5758291,559.549745 L68,562.929 L68,540.24627 C68,539.77471 68.1899796,539.322465 68.5281456,538.989022 L97.3935966,510.526729 L97.393,477.381 L94,474.015 Z M32.5,435.048 L29.106,438.422 L29.1064034,465.091303 L57.9718544,493.730534 C58.2677496,494.02411 58.4501897,494.40921 58.4911763,494.81877 L58.5,494.995597 L58.5,524.71093 C58.5,525.369511 58.141339,525.944979 57.6072399,526.255547 L57.6064034,552.676117 L61,556.024 L61,535.37989 C61,534.90833 61.1899796,534.456085 61.5281456,534.122642 L61.893,533.762 L61.8935966,491.613394 L33.0281456,462.967602 C32.7322504,462.673958 32.5498103,462.28877 32.5088237,461.879117 L32.5,461.702249 L32.5,435.048 Z M39,428.587 L36.106,431.464 L36.1064034,460.961022 L64.9718544,489.606814 C65.2677496,489.900458 65.4501897,490.285646 65.4911763,490.695299 L65.5,490.872168 L65.5,530.205 L68.393,527.353 L68.3935966,487.090536 L39.5281456,458.520629 C39.2322504,458.227764 39.0498103,457.843596 39.0088237,457.435028 L39,457.258628 L39,428.587 Z M45.5,422.125 L42.606,425.002 L42.6064034,456.519365 L71.4718544,485.089272 C71.7677496,485.382137 71.9501897,485.766305 71.9911763,486.174873 L72,486.351273 L72,523.796 L74.893,520.944 L74.8935966,482.908146 L46.0281456,454.262353 C45.7322504,453.96871 45.5498103,453.583522 45.5088237,453.173868 L45.5,452.997 L45.5,422.125 Z M52,415.663 L49.106,418.54 L49.1064034,452.255773 L77.9718544,480.901566 C78.2677496,481.195209 78.4501897,481.580397 78.4911763,481.990051 L78.5,482.166919 L78.5,517.387 L81.393,514.534 L81.3935966,478.37391 L72.4233514,469.496115 C72.3836389,469.498691 72.3435753,469.5 72.3032017,469.5 C71.3073209,469.5 70.5,468.70378 70.5,467.721592 L70.5,467.592 L59.7403923,456.942304 C59.1117981,456.779935 58.6167757,456.290095 58.4522672,455.667817 L52.5281456,449.804004 C52.2322504,449.511138 52.0498103,449.12697 52.0088237,448.718402 L52,448.542002 L52,415.663 Z M110.5,383.482 L110.5,407.368916 C110.5,407.840579 110.31002,408.292924 109.971854,408.62644 L81.1064034,437.094995 L81.106,473.041 L84.4718544,476.372646 C84.7677496,476.665511 84.9501897,477.049679 84.9911763,477.458248 L85,477.634647 L85,510.978 L90.3935966,505.660349 L90.393,470.436 L87.0281456,467.097424 C86.7322504,466.803847 86.5498103,466.418747 86.5088237,466.009188 L86.5,465.83236 L86.5,438.28907 C86.5,438.192664 86.5076855,438.098039 86.5224819,438.005765 C86.4356464,437.463972 86.6024491,436.889873 87.022568,436.472235 L112.931683,410.716107 L112.931683,386.273624 C112.931683,386.154375 112.943521,386.037874 112.966094,385.925221 L110.5,383.482 Z M103.5,376.548 L103.5,403.503006 C103.5,403.974669 103.31002,404.427014 102.971854,404.76053 L74.1064034,433.229084 L74.106,466.113 L77.5,469.472 L77.5,436.358354 C77.5,435.886691 77.6899796,435.434346 78.0281456,435.10083 L106.893597,406.632275 L106.893,379.909 L103.5,376.548 Z M97.5,370.604 L97.5,398.886702 C97.5,399.361813 97.3100204,399.817466 96.9718544,400.153421 L68.1064034,428.830134 L68.106,460.175 L70.5,462.544 L70.5,432.492443 C70.5,432.02078 70.6899796,431.568435 71.0281456,431.234919 L99.8935966,402.766365 L99.8935966,373.278408 C99.8935966,373.182937 99.9012245,373.089222 99.9159119,372.997825 L97.5,370.604 Z M35.5,331.508 L32.606,334.375 L32.6064034,362.680534 L61.4718544,391.266048 C61.7677496,391.559074 61.9501897,391.943451 61.9911763,392.352243 L62,392.528739 L62,454.131 L64.5,456.605 L64.5,428.088107 C64.5,427.67132 64.6461989,427.269507 64.9103828,426.950339 C64.9051798,426.921736 64.9020097,426.892262 64.8995741,426.862583 L64.8935966,426.716291 L64.8935966,388.553545 L36.0281456,360.000128 C35.7322504,359.707431 35.5498103,359.323485 35.5088237,358.915153 L35.5,358.738855 L35.5,331.508 Z M55.5,390.403 L55.5014448,411.183278 C55.5535253,411.327317 55.5874306,411.479914 55.6004259,411.638363 L55.6064034,411.784739 L55.6064034,447.802739 L58.393,450.561 L58.3935966,393.268406 L55.5,390.403 Z M42.5,324.574 L39.106,327.936 L39.1064034,358.000019 L67.9718544,386.553436 C68.2677496,386.846132 68.4501897,387.230078 68.4911763,387.638411 L68.5,387.814708 L68.5,423.372 L71.893,420.001 L71.8935966,384.693996 L43.0281456,356.140579 C42.7322504,355.847882 42.5498103,355.463936 42.5088237,355.055604 L42.5,354.879306 L42.5,324.574 Z M48.5,318.63 L46.106,321.002 L46.1064034,354.14047 L74.9718544,382.693887 C75.2677496,382.986583 75.4501897,383.370529 75.4911763,383.778862 L75.5,383.955159 L75.5,416.417 L77.893,414.04 L77.8935966,380.834447 L49.0281456,352.28103 C48.7322504,351.988333 48.5498103,351.604387 48.5088237,351.196055 L48.5,351.019757 L48.5,318.63 Z M52.5,286.639 L52.5,313.929065 C52.5,314.335184 52.3603819,314.727042 52.1074761,315.041673 L52.1064034,350.280921 L80.9718544,378.834338 C81.2677496,379.127034 81.4501897,379.51098 81.4911763,379.919313 L81.5,380.09561 L81.5,410.456 L84.893,407.085 L84.8935966,375.928671 L83.4461471,374.49447 C83.3989852,374.498134 83.3513135,374.5 83.3032017,374.5 C82.3073209,374.5 81.5,373.700283 81.5,372.713782 L81.5,372.567 L69.3183272,360.499938 C69.3132903,360.499979 69.3082484,360.5 69.3032017,360.5 C68.3073209,360.5 67.5,359.700283 67.5,358.713782 L67.5,358.699 L56.0281456,347.335883 C55.7322504,347.042783 55.5498103,346.658307 55.5088237,346.249412 L55.5,346.072871 L55.5,309.286169 C55.5,308.865547 55.646777,308.478884 55.8923642,308.173691 L55.8935966,289.979337 L52.5,286.639 Z M90.5,338.442 L85.1064034,343.785692 L85.106,371.087 L87.9718544,373.925804 C88.2677496,374.218904 88.4501897,374.60338 88.4911763,375.012275 L88.5,375.188816 L88.5,403.502 L93.8935966,398.144675 L93.893,367.031 L91.0281456,364.192112 C90.7322504,363.899004 90.5498103,363.514518 90.5088237,363.105611 L90.5,362.929065 L90.5,338.442 Z M107.5,280.734 L107.5,308.787014 C107.5,309.260749 107.31002,309.71508 106.971854,310.050061 L78.1064034,338.643641 L78.106,364.153 L81.5,367.515 L81.5,343.045816 C81.5,342.572081 81.6899796,342.11775 82.0281456,341.782769 L90.5,333.39 L90.5,333.286218 C90.5,332.299717 91.3073209,331.5 92.3032017,331.5 L92.404,331.504 L97,326.951 L97,326.788893 C97,325.800915 97.8073209,325 98.8032017,325 C98.8571453,325 98.9105356,325.00235 98.9632743,325.006952 L104,320.017 L104,319.786192 C104,318.799705 104.807321,318 105.803202,318 C105.877547,318 105.950841,318.004457 106.022828,318.013115 L110,314.074 L110,313.783608 C110,313.127037 110.358661,312.553326 110.89276,312.243707 L110.893597,284.286218 C110.893597,284.218267 110.897427,284.151202 110.904886,284.085223 L107.5,280.734 Z M100.5,273.843 L100.5,304.930476 C100.5,305.404211 100.31002,305.858542 99.9718544,306.193523 L71.1064034,334.787102 L71.106,357.219 L74.5,360.581 L74.5,337.903765 C74.5,337.43003 74.6899796,336.975699 75.0281456,336.640718 L103.893597,308.047139 L103.893,277.183 L100.5,273.843 Z M94,267.444 L94,300.453291 C94,300.925543 93.8100204,301.378454 93.4718544,301.712387 L71.6733809,323.239335 C71.5521129,323.410344 71.4013356,323.55933 71.2283771,323.679034 L65.7927961,329.045931 C65.6219286,329.366836 65.3553087,329.629957 65.0305949,329.797993 L64.6064034,330.216534 L64.606,350.781 L67.5,353.647 L67.5,334.047226 C67.5,333.573492 67.6899796,333.11916 68.0281456,332.78418 L96.8935966,304.1906 L96.893,270.292 L94,267.444 Z M33,230.494 L30.106,233.408 L30.1064034,259.575738 L58.9718544,287.989042 C59.2677496,288.280302 59.4501897,288.662364 59.4911763,289.068693 L59.5,289.244126 L59.5,318.725044 C59.5,319.143266 59.3530532,319.527706 59.1072096,319.831064 L59.1064034,345.333016 L61,347.209 L61,329.478973 C61,329.00672 61.1899796,328.553809 61.5281456,328.219876 L62.393,327.365 L62.3935966,285.712186 L33.5281456,257.119737 C33.2322504,256.826641 33.0498103,256.44217 33.0088237,256.033279 L33,255.85674 L33,230.494 Z M39,224.451 L36.606,226.862 L36.6064034,255.116894 L65.4718544,283.709342 C65.7677496,284.002439 65.9501897,284.38691 65.9911763,284.795801 L66,284.972339 L66,323.803 L68.393,321.44 L68.3935966,281.855563 L39.5281456,253.263114 C39.2322504,252.970018 39.0498103,252.585547 39.0088237,252.176656 L39,252.000117 L39,224.451 Z M45.5,217.905 L42.606,220.82 L42.6064034,251.260271 L71.4718544,279.852719 C71.7677496,280.145816 71.9501897,280.530287 71.9911763,280.939177 L72,281.115716 L72,317.878 L74.9159041,314.999648 C74.9087755,314.955208 74.9033105,314.91022 74.8995741,314.864749 L74.8935966,314.718651 L74.8935966,277.318944 L46.0281456,248.80331 C45.7322504,248.511001 45.5498103,248.127563 45.5088237,247.719771 L45.5,247.543707 L45.5,217.905 Z M52,211.359 L49.106,214.274 L49.1064034,246.805848 L77.9718544,275.321481 C78.2677496,275.61379 78.4501897,275.997228 78.4911763,276.405021 L78.5,276.581085 L78.5,311.459 L81.4276764,308.569007 C81.4145956,308.503627 81.405156,308.436958 81.3995741,308.369214 L81.3935966,308.223515 L81.3935966,273.0577 L78.6877226,270.393713 C78.1871932,270.214469 77.7899647,269.822848 77.6080218,269.329295 L65.2835344,257.188563 C65.1004277,257.064527 64.9417074,256.90801 64.8159179,256.727439 L52.5281456,244.619921 C52.2322504,244.32841 52.0498103,243.946019 52.0088237,243.53934 L52,243.363757 L52,211.359 Z M110.5,177.491 L110.5,201.657553 C110.5,202.129216 110.31002,202.581561 109.971854,202.915077 L81.1064034,231.383632 L81.106,267.75 L84.4718544,271.065691 C84.7677496,271.357202 84.9501897,271.739593 84.9911763,272.146272 L85,272.321856 L85,305.041 L90.3935966,299.715729 L90.393,263.894 L88.0281456,261.566032 C87.7322504,261.274772 87.5498103,260.89271 87.5088237,260.486381 L87.5,260.310949 L87.5,232.274956 C87.5,231.429551 88.1004476,230.72219 88.9044563,230.543545 L94.0494898,225.36257 C94.2038731,224.726635 94.7047961,224.223488 95.344427,224.058058 L101.067357,218.293098 C101.233321,217.712957 101.691181,217.25325 102.274964,217.0774 L107.592612,211.72315 C107.768857,211.199299 108.182089,210.783254 108.705867,210.600629 L113.931683,205.339969 L113.931683,181.296801 C113.931683,181.170277 113.944668,181.046807 113.96937,180.92767 L110.5,177.491 Z M104.5,171.548 L104.5,196.791642 C104.5,197.263306 104.31002,197.715651 103.971854,198.049167 L75.1064034,226.517721 L75.1064034,261.721592 L75.101,261.834 L77.5,264.197 L77.5,230.646991 C77.5,230.175328 77.6899796,229.722983 78.0281456,229.389467 L106.893597,200.920912 L106.893597,174.278408 C106.893597,174.165955 106.904179,174.055939 106.924416,173.949277 L104.5,171.548 Z M97.5,164.613 L97.5,192.925732 C97.5,193.397395 97.3100204,193.84974 96.9718544,194.183256 L75.7559399,215.109264 C75.596324,215.381383 75.3665739,215.607921 75.0912944,215.764439 L70,220.783 L70,221.221239 C70,222.203621 69.1926791,223 68.1967983,223 L68.106,222.996 L68.106,254.942 L71.5,258.286 L71.5,225.78108 C71.5,225.309417 71.6899796,224.857072 72.0281456,224.523556 L100.893597,196.055002 L100.893,167.974 L97.5,164.613 Z M37,125.013 L33.606,128.375 L33.6064034,156.680534 L62.4718544,185.266048 C62.7677496,185.559074 62.9501897,185.943451 62.9911763,186.352243 L63,186.528739 L63,249.214286 C63,249.423199 62.9637732,249.623734 62.8972013,249.810064 L64.5,251.389 L64.5,221.91517 C64.5,221.443507 64.6899796,220.991162 65.0281456,220.657646 L66.393,219.311 L66.3935966,183.875861 L37.5281456,155.401651 C37.2322504,155.109766 37.0498103,154.726885 37.0088237,154.319685 L37,154.143877 L37,125.013 Z M56.5,184.403 L56.5,206.084228 C56.5,206.560769 56.3120267,207.017793 55.977432,207.354758 L55.606,207.728 L55.6064034,242.627912 L59.393,246.358 L59.3935966,187.268406 L56.5,184.403 Z M43,119.069 L40.579014,121.468199 C40.5886687,121.522288 40.5958459,121.577219 40.6004259,121.632875 L40.6064034,121.778761 L40.6064034,153.40709 L69.4718544,181.8813 C69.7677496,182.173184 69.9501897,182.556065 69.9911763,182.963265 L70,183.139074 L70,215.753 L72.393,213.393 L72.3935966,179.469533 L43.5281456,150.797261 C43.2275536,150.49868 43.0440472,150.105539 43.006979,149.688226 L43,149.530738 L43,119.069 Z M49,113.126 L46.606,115.497 L46.6064034,148.788826 L75.4718544,177.461098 C75.7724464,177.759678 75.9559528,178.15282 75.993021,178.570133 L76,178.727621 L76,209.836 L78.4108816,207.45787 C78.4061569,207.424127 78.4023786,207.390084 78.3995741,207.355767 L78.3935966,207.208866 L78.3935966,174.618894 L49.5281456,145.946621 C49.2275536,145.648041 49.0440472,145.2549 49.006979,144.837586 L49,144.680098 L49,113.126 Z M53.5,82.415 L53.5,107.929065 C53.5,108.4028 53.3100204,108.857132 52.9718544,109.192112 L52.606,109.554 L52.6064034,143.938186 L81.4718544,172.610459 C81.7724464,172.909039 81.9559528,173.302181 81.993021,173.719494 L82,173.876982 L82,203.918 L84.9217148,201.038107 C84.9116918,200.982794 84.9042686,200.926595 84.8995741,200.869635 L84.8935966,200.723974 L84.8935966,170.540118 L82.7261322,168.406574 C82.1971938,168.229704 81.7781446,167.816396 81.5971169,167.293574 L75.5467484,161.3357 C75.1617828,161.159225 74.8502585,160.852221 74.6700544,160.472019 L56.0281456,142.109686 C55.7322504,141.81825 55.5498103,141.435958 55.5088237,141.029384 L55.5,140.853846 L55.5,104.276026 C55.5,103.857551 55.6469468,103.472881 55.8927904,103.16934 L55.8935966,84.7856916 L53.5,82.415 Z M91.5,131.451 L85.1064034,137.785692 L85.106,165.726 L87.9718544,168.548623 C88.2677496,168.840059 88.4501897,169.222352 88.4911763,169.628925 L88.5,169.804464 L88.5,197.508 L93.8935966,192.189091 L93.8935966,161.278408 C93.8935966,161.202855 93.8983736,161.128403 93.9076461,161.055328 L92.0281456,159.192112 C91.7322504,158.899004 91.5498103,158.514518 91.5088237,158.105611 L91.5,157.929065 L91.5,131.451 Z M107.5,74.491 L107.5,103.787014 C107.5,104.260749 107.31002,104.71508 106.971854,105.050061 L78.1064034,133.643641 L78.106,158.832 L81.5,162.175 L81.5,137.045816 C81.5,136.572081 81.6899796,136.11775 82.0281456,135.782769 L110.893597,107.18919 L110.893597,78.2862181 C110.893597,78.1519835 110.908544,78.0212073 110.936881,77.8954337 L107.5,74.491 Z M101,68.053 L101,99.3165329 C101,99.7887857 100.81002,100.241696 100.471854,100.575629 L71.6064034,129.079777 L71.6064034,152.219369 C71.6064034,152.28642 71.6026504,152.352605 71.5953404,152.417731 L74.5,155.28 L74.5,132.903765 C74.5,132.43003 74.6899796,131.975699 75.0281456,131.640718 L103.893597,103.047139 L103.893597,71.2862181 C103.893597,71.1717135 103.904473,71.0597254 103.925259,70.9512122 L101,68.053 Z M95,62.109 L95,95.4532905 C95,95.9255433 94.8100204,96.3784539 94.4718544,96.712387 L73.166473,117.751979 C73.0503736,117.91278 72.9078412,118.053715 72.7451322,118.168613 L65.6064034,125.216534 L65.6064034,146.219369 C65.6064034,146.314272 65.5988849,146.407441 65.584404,146.498326 L68,148.878 L68,128.342215 C68,127.869962 68.1899796,127.417052 68.5281456,127.083119 L97.3935966,98.5789712 L97.3935966,64.7806314 C97.3935966,64.6860722 97.4010607,64.5932345 97.4154389,64.5026615 L95,62.109 Z M96.8032017,16 C97.7492885,16 98.5251999,16.7228255 98.6004259,17.6421759 L98.6064034,17.788893 L98.6064034,49.597376 L127.471854,78.2337744 C127.76775,78.5273216 127.95019,78.9123835 127.991176,79.3219027 L128,79.4987128 L128,109.211107 C128,110.199085 127.192679,111 126.196798,111 C125.250712,111 124.4748,110.277175 124.399574,109.357824 L124.393597,109.211107 L124.393597,80.2396965 L95.5281456,51.603298 C95.2322504,51.3097508 95.0498103,50.9246889 95.0088237,50.5151698 L95,50.3383597 L95,17.788893 C95,16.8009147 95.8073209,16 96.8032017,16 Z M103.803202,10 C104.749288,10 105.5252,10.7217342 105.600426,11.6396966 L105.606403,11.7861921 L105.606403,45.6900813 L134.471854,74.2832447 C134.76775,74.5763487 134.95019,74.9608292 134.991176,75.3697301 L135,75.5462733 L135,105.213808 C135,106.200295 134.192679,107 133.196798,107 C132.250712,107 131.4748,106.278266 131.399574,105.360303 L131.393597,105.213808 L131.393597,76.2861383 L102.528146,47.6929749 C102.23225,47.3998709 102.04981,47.0153904 102.008824,46.6064895 L102,46.4299463 L102,11.7861921 C102,10.7997054 102.807321,10 103.803202,10 Z M109.803202,4 C110.749288,4 111.5252,4.72069004 111.600426,5.63732444 L111.606403,5.78360803 L111.606403,41.7787782 L140.471854,70.3305759 C140.76775,70.6232559 140.95019,71.0071802 140.991176,71.4154895 L141,71.5917773 L141,101.216392 C141,102.201451 140.192679,103 139.196798,103 C138.250712,103 137.4748,102.27931 137.399574,101.362676 L137.393597,101.216392 L137.393597,72.3305719 L108.528146,43.7787742 C108.23225,43.4860942 108.04981,43.1021699 108.008824,42.6938606 L108,42.5175729 L108,5.78360803 C108,4.79854852 108.807321,4 109.803202,4 Z M115.803202,-1.8189894e-12 C116.749288,-1.8189894e-12 117.5252,0.720690037 117.600426,1.63732444 L117.606403,1.78360803 L117.606403,37.7787782 L146.471854,66.3305759 C146.76775,66.6232559 146.95019,67.0071802 146.991176,67.4154895 L147,67.5917773 L147,97.216392 C147,98.2014515 146.192679,99 145.196798,99 C144.250712,99 143.4748,98.27931 143.399574,97.3626756 L143.393597,97.216392 L143.393597,68.3305719 L114.528146,39.7787742 C114.23225,39.4860942 114.04981,39.1021699 114.008824,38.6938606 L114,38.5175729 L114,1.78360803 C114,0.798548517 114.807321,-1.8189894e-12 115.803202,-1.8189894e-12 Z"></path>
                    </g>
                </g>
            </g>
        </g>
    </g>
</svg>