<?xml version="1.0" encoding="UTF-8"?>
<svg width="412px" height="72px" viewBox="0 0 412 72" version="1.1" xmlns="http://www.w3.org/2000/svg" xmlns:xlink="http://www.w3.org/1999/xlink">
    <!-- Generator: Sketch 57.1 (83088) - https://sketch.com -->
    <title>mastercard_logo</title>
    <desc>Created with Sketch.</desc>
    <g id="Page-1" stroke="none" stroke-width="1" fill="none" fill-rule="evenodd">
        <g id="mastercard_logo" transform="translate(0.000000, -1.000000)" fill-rule="nonzero">
            <path d="M179.39,49.11 L179.39,34.11 C179.39,28.45 175.78,24.64 169.97,24.59 C166.599983,24.3721167 163.378103,26.0041271 161.56,28.85 C159.902968,26.0880205 156.868021,24.4535234 153.65,24.59 C150.851197,24.4548284 148.189289,25.8085992 146.65,28.15 L146.65,25.15 L141.44,25.15 L141.44,49.11 L146.7,49.11 L146.7,35.84 C146.7,31.68 149,29.48 152.56,29.48 C156.12,29.48 157.77,31.73 157.77,35.79 L157.77,49.11 L163,49.11 L163,35.84 C163,31.68 165.4,29.48 168.86,29.48 C172.32,29.48 174.12,31.73 174.12,35.79 L174.12,49.11 L179.39,49.11 Z M257.22,25.17 L248.71,25.17 L248.71,17.91 L243.45,17.91 L243.45,25.17 L238.59,25.17 L238.59,29.93 L243.45,29.93 L243.45,40.84 C243.45,46.4 245.6,49.7100639 251.76,49.7100639 C254.060744,49.7174327 256.317001,49.0762539 258.27,47.86 L256.77,43.4 C255.372215,44.2325883 253.786101,44.6970684 252.16,44.75 C249.56,44.75 248.7,43.15 248.7,40.75 L248.7,29.93 L257.21,29.93 L257.22,25.17 Z M301.65,24.57 C299.062202,24.4945668 296.640683,25.8415608 295.34,28.08 L295.34,25.17 L290.18,25.17 L290.18,49.11 L295.39,49.11 L295.39,35.69 C295.39,31.69 297.09,29.53 300.5,29.53 C301.615534,29.5138629 302.723311,29.7177482 303.76,30.13 L305.36,25.22 C304.169241,24.7941366 302.914613,24.5743231 301.65,24.57 L301.65,24.57 Z M234.48,27.07 C231.530238,25.3175331 228.138961,24.4497549 224.71,24.57 C218.65,24.57 214.71,27.48 214.71,32.23 C214.71,36.14 217.61,38.54 222.97,39.29 L225.42,39.64 C228.27,40.04 229.63,40.79 229.63,42.14 C229.63,43.99 227.73,45.05 224.17,45.05 C221.297906,45.1412362 218.479096,44.2603578 216.17,42.55 L213.8,46.6 C216.833985,48.7213432 220.469346,49.8116008 224.17,49.71 C231.08,49.71 235.09,46.45 235.09,41.9 C235.09,37.69 231.93,35.49 226.73,34.74 L224.28,34.39 C222.03,34.09 220.22,33.64 220.22,32.04 C220.22,30.29 221.92,29.24 224.78,29.24 C227.400407,29.2787271 229.967773,29.9842365 232.24,31.29 L234.48,27.07 Z M374,24.57 C371.412202,24.4945668 368.990683,25.8415608 367.69,28.08 L367.69,25.17 L362.53,25.17 L362.53,49.11 L367.74,49.11 L367.74,35.69 C367.74,31.69 369.44,29.53 372.85,29.53 C373.965534,29.5138629 375.073311,29.7177482 376.11,30.13 L377.71,25.22 C376.519241,24.7941366 375.264613,24.5743231 374,24.57 Z M306.91,37.14 C306.91,44.4 311.97,49.71 319.68,49.71 C322.806362,49.8646769 325.87754,48.844518 328.29,46.85 L325.79,42.64 C323.989011,44.0115371 321.793642,44.7655377 319.53,44.79 C315.37,44.79 312.32,41.73 312.32,37.13 C312.32,32.53 315.38,29.52 319.53,29.47 C321.793642,29.4944623 323.989011,30.2484629 325.79,31.62 L328.29,27.41 C325.87754,25.415482 322.806362,24.3953231 319.68,24.55 C311.97,24.55 306.91,29.86 306.91,37.12 L306.91,37.14 Z M355.69,37.14 L355.69,25.14 L350.48,25.14 L350.48,28.05 C348.67759,25.7241585 345.859869,24.4159307 342.92,24.54 C336.21,24.54 330.92,29.8 330.92,37.11 C330.92,44.42 336.18,49.68 342.92,49.68 C345.859869,49.8040693 348.67759,48.4958415 350.48,46.17 L350.48,49.07 L355.69,49.07 L355.69,37.14 Z M336.31,37.14 C336.31,32.93 339.06,29.48 343.57,29.48 C347.88,29.48 350.78,32.79 350.78,37.14 C350.78,41.49 347.88,44.8 343.57,44.8 C339.06,44.8 336.31,41.34 336.31,37.14 Z M273.45,24.57 C266.45,24.57 261.53,29.68 261.53,37.14 C261.53,44.75 266.64,49.71 273.8,49.71 C277.37508,49.8352583 280.871012,48.6390944 283.62,46.35 L281.07,42.49 C279.081121,44.0813023 276.616971,44.9613556 274.07,44.99 C270.71,44.99 267.66,43.44 266.91,39.13 L284.69,39.13 C284.74,38.48 284.79,37.83 284.79,37.13 C284.79,29.67 280.13,24.56 273.42,24.56 L273.45,24.57 Z M273.35,29.23 C276.71,29.23 278.86,31.33 279.41,35.04 L267,35.04 C267.55,31.58 269.65,29.23 273.36,29.23 L273.35,29.23 Z M404,37.14 L404,15.55 L398.79,15.55 L398.79,28.07 C396.98759,25.7441585 394.169869,24.4359307 391.23,24.56 C384.52,24.56 379.23,29.82 379.23,37.13 C379.23,44.44 384.49,49.7 391.23,49.7 C394.169869,49.8240693 396.98759,48.5158415 398.79,46.19 L398.79,49.09 L404,49.09 L404,37.14 Z M410.09,46.9 C410.29604,46.8991917 410.50012,46.9400078 410.69,47.02 C410.872744,47.0980024 411.03902,47.2099845 411.18,47.35 C411.319723,47.4873911 411.431753,47.6503438 411.51,47.83 C411.672386,48.2065732 411.672386,48.6334268 411.51,49.01 C411.431537,49.1895359 411.319533,49.3524497 411.18,49.49 C411.038566,49.6294613 410.872401,49.7413685 410.69,49.82 C410.50037,49.9008006 410.296121,49.9416503 410.09,49.94 C409.466656,49.9477819 408.899308,49.5813696 408.65,49.01 C408.488792,48.6331845 408.488792,48.2068155 408.65,47.83 C408.806394,47.4628182 409.100927,47.1718773 409.47,47.02 C409.672603,46.9357137 409.890625,46.8948346 410.11,46.9 L410.09,46.9 Z M410.09,49.6 C410.247938,49.6024804 410.404642,49.571821 410.55,49.51 C410.687775,49.4503431 410.813245,49.3655664 410.92,49.26 C411.382785,48.7956114 411.382785,48.0443886 410.92,47.58 C410.813702,47.4738772 410.688121,47.3890249 410.55,47.33 C410.404471,47.2687387 410.247886,47.2381024 410.09,47.24 C409.928855,47.237865 409.768956,47.268484 409.62,47.33 C409.257933,47.4845938 408.995758,47.8082529 408.919704,48.1945272 C408.84365,48.5808014 408.963561,48.97969 409.24,49.26 C409.349414,49.3669917 409.478437,49.4518754 409.62,49.51 C409.775067,49.5745308 409.942123,49.6052145 410.11,49.6 L410.09,49.6 Z M410.18,47.7 C410.329741,47.6895082 410.478405,47.7319837 410.6,47.82 C410.699834,47.8997314 410.755572,48.0223568 410.75,48.15 C410.753652,48.2594413 410.709915,48.3651384 410.63,48.44 C410.538311,48.5215639 410.422368,48.5707517 410.3,48.58 L410.76,49.11 L410.4,49.11 L409.97,48.58 L409.83,48.58 L409.83,49.11 L409.53,49.11 L409.53,47.71 L410.18,47.7 Z M409.83,47.96 L409.83,48.34 L410.18,48.34 C410.242046,48.3580556 410.307954,48.3580556 410.37,48.34 C410.416125,48.3087111 410.442644,48.2556736 410.44,48.2 C410.442644,48.1443264 410.416125,48.0912889 410.37,48.06 C410.307954,48.0419444 410.242046,48.0419444 410.18,48.06 L409.83,47.96 Z M384.64,37.14 C384.64,32.93 387.39,29.48 391.9,29.48 C396.21,29.48 399.11,32.79 399.11,37.14 C399.11,41.49 396.21,44.8 391.9,44.8 C387.39,44.8 384.64,41.34 384.64,37.14 Z M208.74,37.14 L208.74,25.14 L203.53,25.14 L203.53,28.05 C201.727519,25.7442506 198.924158,24.4486732 196,24.57 C189.29,24.57 184,29.83 184,37.14 C184,44.45 189.26,49.71 196,49.71 C198.939869,49.8340693 201.75759,48.5258415 203.56,46.2 L203.56,49.1 L208.77,49.1 L208.74,37.14 Z M189.36,37.14 C189.36,32.93 192.11,29.48 196.62,29.48 C200.93,29.48 203.83,32.79 203.83,37.14 C203.83,41.49 200.93,44.8 196.62,44.8 C192.11,44.8 189.36,41.35 189.36,37.14 L189.36,37.14 Z" id="Shape" fill="#231F20"></path>
            <g id="_Group_">
                <rect id="Rectangle" fill="#FF5F00" x="43.46" y="8.68" width="31.5" height="56.61"></rect>
                <path d="M45.46,37 C45.4512973,25.9550015 50.5216087,15.5193787 59.21,8.7 C44.4497903,-2.89994822 23.2535373,-1.21031545 10.5173979,12.5814698 C-2.21874153,26.3732551 -2.21874153,47.6367449 10.5173979,61.4285302 C23.2535373,75.2203154 44.4497903,76.9099482 59.21,65.31 C50.5188438,58.4884557 45.4482226,48.0485077 45.46,37 Z" id="_Path_" fill="#EB001B"></path>
                <path d="M117.460001,37 C117.460001,50.7833804 109.589421,63.3566503 97.1917553,69.3798939 C84.7940897,75.4031374 70.0455898,73.8188948 59.21,65.3 C67.8946003,58.4748318 72.9652933,48.0405965 72.9652933,36.995 C72.9652933,25.9494035 67.8946003,15.5151682 59.21,8.69 C70.047008,0.169989425 84.7978014,-1.41346372 97.1962534,4.61229036 C109.594705,10.6380444 117.463508,23.2148155 117.460001,37 Z" id="Path" fill="#F79E1B"></path>
                <path d="M114,59.29 L114,58.13 L114.47,58.13 L114.47,57.9 L113.3,57.9 L113.3,58.14 L113.77,58.14 L113.77,59.3 L114,59.29 Z M116.31,59.29 L116.31,57.89 L116,57.89 L115.58,58.89 L115.16,57.89 L114.79,57.89 L114.79,59.29 L115,59.29 L115,58.24 L115.39,59.15 L115.66,59.15 L116.05,58.24 L116.05,59.3 L116.31,59.29 Z" id="Shape" fill="#F79E1B"></path>
            </g>
        </g>
    </g>
</svg>