<?xml version="1.0" encoding="UTF-8"?>
<svg width="29px" height="12px" viewBox="0 0 29 12" version="1.1" xmlns="http://www.w3.org/2000/svg" xmlns:xlink="http://www.w3.org/1999/xlink">
    <!-- Generator: Sketch 57.1 (83088) - https://sketch.com -->
    <title>right-heart</title>
    <desc>Created with Sketch.</desc>
    <g id="Page-1" stroke="none" stroke-width="1" fill="none" fill-rule="evenodd">
        <g id="Group-6" transform="translate(-285.000000, -31.000000)">
            <g id="Group-3" transform="translate(22.000000, 21.000000)">
                <g id="right-heart" transform="translate(262.967122, 6.000000)">
                    <path d="M19.2175144,3 C20.8743687,3 22.2175144,4.34314575 22.2175144,6 L22.2175144,13 L22.0961941,12.999 L22.0961941,13.1213203 L15.0961941,13.1213203 C13.4393398,13.1213203 12.0961941,11.7781746 12.0961941,10.1213203 C12.0961941,8.46446609 13.4393398,7.12132034 15.0961941,7.12132034 L16.2171941,7.121 L16.2175144,6 C16.2175144,4.34314575 17.5606602,3 19.2175144,3 Z" id="Combined-Shape" fill="#FF7272" transform="translate(17.156854, 8.060660) rotate(-315.000000) translate(-17.156854, -8.060660) "></path>
                    <path d="M4.35355339,7.35355339 C4.54881554,7.15829124 4.54881554,6.84170876 4.35355339,6.64644661 C4.15829124,6.45118446 3.84170876,6.45118446 3.64644661,6.64644661 L0.646446609,9.64644661 C0.451184464,9.84170876 0.451184464,10.1582912 0.646446609,10.3535534 L3.64644661,13.3535534 C3.84170876,13.5488155 4.15829124,13.5488155 4.35355339,13.3535534 C4.54881554,13.1582912 4.54881554,12.8417088 4.35355339,12.6464466 L1.70710678,10 L4.35355339,7.35355339 Z" id="Path-44" fill="#FFFFFF" fill-rule="nonzero"></path>
                    <path d="M28.4497475,7.35355339 C28.6450096,7.15829124 28.6450096,6.84170876 28.4497475,6.64644661 C28.2544853,6.45118446 27.9379028,6.45118446 27.7426407,6.64644661 L24.7426407,9.64644661 C24.5473785,9.84170876 24.5473785,10.1582912 24.7426407,10.3535534 L27.7426407,13.3535534 C27.9379028,13.5488155 28.2544853,13.5488155 28.4497475,13.3535534 C28.6450096,13.1582912 28.6450096,12.8417088 28.4497475,12.6464466 L25.8033009,10 L28.4497475,7.35355339 Z" id="Path-44" fill="#FFFFFF" fill-rule="nonzero" transform="translate(26.596194, 10.000000) scale(-1, 1) translate(-26.596194, -10.000000) "></path>
                    <path d="M6.46459604,15.1847986 L10.4346888,5.20371949 C10.5367503,4.94713018 10.4114807,4.6563863 10.1548914,4.55432486 C9.89830206,4.45226341 9.60755818,4.577533 9.50549673,4.83412231 L5.53540396,14.8152014 C5.43334252,15.0717907 5.5586121,15.3625346 5.81520141,15.464596 C6.07179071,15.5666575 6.36253459,15.4413879 6.46459604,15.1847986 Z" id="Path-45" fill="#FFFFFF" fill-rule="nonzero"></path>
                </g>
            </g>
        </g>
    </g>
</svg>